<svg class="svg-icon" style="width: 1em; height: 1em;vertical-align: middle;fill: currentColor;overflow: hidden;" viewBox="0 0 1024 1024" version="1.1" xmlns="http://www.w3.org/2000/svg"><path d="M512 406.186667A105.813333 105.813333 0 1 0 617.813333 512 105.813333 105.813333 0 0 0 512 406.186667z m423.68-104.533334a278.613333 278.613333 0 0 0-17.92-96.426666 170.666667 170.666667 0 0 0-98.986667-98.986667 278.613333 278.613333 0 0 0-96.426666-17.92C667.306667 85.333333 651.093333 85.333333 512 85.333333s-155.306667 0-210.346667 2.986667a278.613333 278.613333 0 0 0-96.426666 17.92 170.666667 170.666667 0 0 0-98.986667 98.986667 278.613333 278.613333 0 0 0-17.92 96.426666C85.333333 356.693333 85.333333 372.906667 85.333333 512s0 155.306667 2.986667 210.346667a292.693333 292.693333 0 0 0 17.92 96.853333 168.106667 168.106667 0 0 0 38.826667 59.733333 165.973333 165.973333 0 0 0 60.16 38.826667 278.613333 278.613333 0 0 0 96.426666 17.92C356.693333 938.666667 372.906667 938.666667 512 938.666667s155.306667 0 210.346667-2.986667a278.613333 278.613333 0 0 0 96.426666-17.92 165.973333 165.973333 0 0 0 60.16-38.826667 168.106667 168.106667 0 0 0 38.826667-59.733333 281.6 281.6 0 0 0 17.92-96.853333C938.666667 667.306667 938.666667 651.093333 938.666667 512s0-155.306667-2.986667-210.346667z m-108.373333 341.333334a244.48 244.48 0 0 1-16.64 76.8A164.693333 164.693333 0 0 1 719.786667 810.666667a244.48 244.48 0 0 1-77.226667 14.933333H381.44A244.48 244.48 0 0 1 304.213333 810.666667a149.76 149.76 0 0 1-55.893333-36.693334A149.76 149.76 0 0 1 213.333333 719.786667a234.24 234.24 0 0 1-14.506666-77.226667V512 381.44A234.24 234.24 0 0 1 213.333333 304.213333a149.76 149.76 0 0 1 36.693334-55.893333A153.173333 153.173333 0 0 1 304.213333 213.333333a244.48 244.48 0 0 1 77.226667-14.933333h261.12a244.48 244.48 0 0 1 77.226667 14.933333 149.76 149.76 0 0 1 55.893333 36.693334A149.76 149.76 0 0 1 810.666667 304.213333a244.48 244.48 0 0 1 14.933333 77.226667V512c0 87.893333 2.986667 96.853333 1.706667 130.56z m-68.266667-317.44a101.546667 101.546667 0 0 0-60.16-60.16A170.666667 170.666667 0 0 0 640 256H384a170.666667 170.666667 0 0 0-58.88 11.093333 101.546667 101.546667 0 0 0-60.16 58.026667A182.186667 182.186667 0 0 0 256 384v256a182.186667 182.186667 0 0 0 11.093333 58.88 101.546667 101.546667 0 0 0 60.16 60.16 182.186667 182.186667 0 0 0 56.746667 11.093333h256a170.666667 170.666667 0 0 0 58.88-11.093333 101.546667 101.546667 0 0 0 60.16-60.16 170.666667 170.666667 0 0 0 11.093333-58.88v-128-128a161.28 161.28 0 0 0-11.093333-58.88zM512 674.986667A162.56 162.56 0 0 1 349.44 512 162.986667 162.986667 0 1 1 512 674.986667z m170.666667-293.973334a38.4 38.4 0 0 1 0-76.373333 38.4 38.4 0 0 1 0 76.373333z"  /></svg>